<svg xmlns="http://www.w3.org/2000/svg" width="512" height="512" viewBox="0 0 58 59"><g fill="none"><path d="M52 12.19c0 8.12-5.11 11.37-8.52 14.62-3.2 3.05-13.15 11.11-14.36 12.09a.968.968 0 00-.09.07L29 39l-.03-.03a.968.968 0 00-.09-.07c-1.21-.98-11.16-9.04-14.36-12.09C11.11 23.56 6 20.31 6 12.19S11.11 0 17.93 0A12.594 12.594 0 0129 6.5 12.594 12.594 0 0140.07 0C46.89 0 52 4.06 52 12.19z" fill="#DF4D60"/><path d="M49 12.19c0 8.12-4.44 11.37-7.41 14.62-2.77 3.04-11.38 11.07-12.47 12.09a.968.968 0 00-.09.07L29 39l-.03-.03a.968.968 0 00-.09-.07c-1.09-1.02-9.7-9.05-12.47-12.09C13.44 23.56 9 20.31 9 12.19 9 4.38 13.1.32 18.68.02A12.594 12.594 0 0129 6.5 12.594 12.594 0 0139.32.02C44.9.32 49 4.38 49 12.19z" fill="#FF5364"/><path d="M38 26h-.04a1 1 0 01-.938-.79l-2.1-9.786-.955 3.82A1 1 0 0133 20h-5.279l-.772 2.316c-.15.407-.536.68-.97.684a1 1 0 01-.94-.725l-1.062-3.717-2.019 6.729a1.015 1.015 0 01-1 .712 1 1 0 01-.938-.79l-2.1-9.786-.955 3.82A1 1 0 0116 20H1a1 1 0 010-2h14.219l1.811-7.243a.977.977 0 01.987-.757 1 1 0 01.961.791l2.184 10.19 1.88-6.268a.945.945 0 01.964-.713 1 1 0 01.955.725l1.114 3.9A1 1 0 0127 18h5.219l1.811-7.243a1 1 0 011.948.034l2.184 10.19 1.88-6.268A1 1 0 0141 14h.006a1 1 0 01.955.725l1.114 3.9A1 1 0 0144 18h13a1 1 0 010 2H44.721l-.772 2.316a1.058 1.058 0 01-.97.684 1 1 0 01-.94-.725l-1.062-3.717-2.019 6.729A1 1 0 0138 26z" fill="#F3D55B"/><path d="M13.316 41.738l-4.568-4.569a10.9 10.9 0 01-2.31-3.411L4.2 28.539a2.189 2.189 0 00-2.01-1.326A2.189 2.189 0 00.2 30.307l3.919 8.622a9.693 9.693 0 001.968 2.84L13.316 49H23v-2.861a9.455 9.455 0 00-1.972-5.925 6.248 6.248 0 00-2.869-2.107 21.456 21.456 0 01-6.053-3.858 3.584 3.584 0 00-4.838.224m37.414 7.265l4.569-4.569a10.9 10.9 0 002.31-3.411l2.239-5.219a2.189 2.189 0 012.012-1.326 2.189 2.189 0 011.988 3.094l-3.919 8.622a9.693 9.693 0 01-1.968 2.84L44.682 49H35v-2.861a9.455 9.455 0 011.973-5.925 6.248 6.248 0 012.869-2.107 21.451 21.451 0 006.052-3.858 3.586 3.586 0 014.839.224" fill="#FDD7AD"/><rect fill="#41767F" transform="rotate(-180 39.5 54)" x="33" y="49" width="13" height="10" rx="1"/><path d="M38 55h-1a1 1 0 010-2h1a1 1 0 010 2z" fill="#2C3E50"/><rect fill="#41767F" x="11.999" y="49" width="13" height="10" rx="1"/><path d="M21 55h-1a1 1 0 010-2h1a1 1 0 010 2z" fill="#2C3E50"/><path d="M14.92 41.99a1.014 1.014 0 01-1.42 0l-4.57-4.57a11.929 11.929 0 01-1.74-2.21 9.82 9.82 0 01-.25-.44l.38-.35c.358-.36.792-.637 1.27-.81a9.829 9.829 0 001.76 2.4l4.57 4.56c.39.393.39 1.027 0 1.42zm28.238 0a1.014 1.014 0 001.42 0l4.57-4.57a11.929 11.929 0 001.74-2.21c.09-.15.17-.29.25-.44l-.38-.35a3.442 3.442 0 00-1.27-.81 9.829 9.829 0 01-1.76 2.4l-4.57 4.56a1.008 1.008 0 000 1.42z" fill="#F09372"/></g></svg>