<svg height="512" width="512" xmlns="http://www.w3.org/2000/svg"><path d="M511.986 253.289c.821 79.301-34.428 150.409-90.346 197.901a480.601 480.601 0 01-331.278-.006l-.012-.005h-.01C35.07 404.22 0 334.2 0 256 0 114.821 114.295.325 255.399.001c141.025-.324 255.127 112.27 256.587 253.288z" fill="#ffe400"/><path d="M512 256c0 78.21-35.08 148.23-90.36 195.19l-.01.01a480.603 480.603 0 01-331.256-.009l-.004-.001C35.08 404.24 0 334.21 0 256c0-46.22 12.25-89.57 33.68-127C77.8 206.07 160.84 258 256 258s178.21-51.93 222.32-129C499.75 166.43 512 209.78 512 256z" fill="#fed110"/><path d="M256.614 52.848c-.82 0-1.621 0-2.422.019-80.994 1.309-146.497 67.612-146.497 148.919s65.503 147.61 146.497 148.919c.801.02 1.602.02 2.422.02 82.128 0 148.939-66.811 148.939-148.939S338.742 52.848 256.614 52.848zm0 252.946c-.801 0-1.621 0-2.422-.039-56.223-1.289-101.565-47.432-101.565-103.968 0-56.516 45.342-102.679 101.565-103.968.801-.039 1.622-.039 2.422-.039 57.357 0 104.007 46.67 104.007 104.007 0 57.356-46.65 104.007-104.007 104.007z" fill="#374c81"/><path d="M405.553 201.787c0 82.128-66.811 148.939-148.939 148.939-.82 0-1.621 0-2.422-.02v-44.951c.801.039 1.622.039 2.422.039 57.357 0 104.007-46.651 104.007-104.007 0-57.337-46.651-104.007-104.007-104.007-.801 0-1.621 0-2.422.039V52.868c.801-.019 1.602-.019 2.422-.019 82.128-.001 148.939 66.811 148.939 148.938z" fill="#323b5a"/><path d="M438.31 379.63c-.41 25.57-6.35 49.81-16.67 71.56C376.99 489.12 319.17 512 256 512c-.6 0-1.21 0-1.81-.01-21.73-.15-42.81-3.01-62.93-8.25-37.73-9.83-72.08-28.06-100.92-52.56-10.7-22.54-16.68-47.75-16.68-74.37 0-66.65 37.55-124.55 92.64-153.7.02-.02.04-.02.06-.04v-13.03c0-26.63 21.59-48.21 48.21-48.21h82.85c26.63 0 48.22 21.58 48.22 48.21v13.21c55.85 29.75 93.73 89.1 92.67 156.38z" fill="#6d88af"/><path d="M438.31 379.63c-.41 25.57-6.35 49.81-16.67 71.56C376.99 489.12 319.17 512 256 512c-.6 0-1.21 0-1.81-.01-21.73-.15-42.81-3.01-62.93-8.25-2.16-2.96-4.13-6.68-5.83-11.1-11.86-30.75-19.07-71.32-19.07-115.83 0-66.65 16.18-124.55 39.93-153.7 0-.02.02-.02.02-.04v-13.03c0-26.63 9.3-48.21 20.79-48.21h70.32c26.63 0 48.22 21.58 48.22 48.21v13.21c55.85 29.75 93.73 89.1 92.67 156.38z" fill="#4e689b"/><path d="M438.31 379.63c-.41 25.57-6.35 49.81-16.67 71.56C376.99 489.12 319.17 512 256 512h-1.81V161.83h43.23c26.63 0 48.22 21.58 48.22 48.21v13.21c55.85 29.75 93.73 89.1 92.67 156.38z" fill="#374c81"/><path d="M345.638 210.04v13.206l-91.446-.078c-16.839-.02-33.601-.039-47.901-.059-23.227 0-39.93-.02-39.93-.039v-13.03c0-26.627 21.587-48.214 48.214-48.214h82.85c26.626 0 48.213 21.586 48.213 48.214z" fill="#4e689b"/><path d="M345.638 210.04v13.206l-91.446-.078c-16.839-.02-33.601-.039-47.901-.059 0-.02.02-.02.02-.039v-13.03c0-26.627 9.299-48.214 20.786-48.214h70.328c26.626 0 48.213 21.586 48.213 48.214z" fill="#374c81"/><path d="M345.638 210.04v13.206l-91.446-.078v-61.342h43.232c26.627 0 48.214 21.586 48.214 48.214z" fill="#323b5a"/><path d="M222.048 401.056l-17.023-28.1c-1.734-2.863-5.742-3.235-7.974-.741l-4.474 4.999a4.984 4.984 0 00-1.269 3.322v17.938a4.982 4.982 0 01-4.982 4.982h-24.939a4.982 4.982 0 01-4.982-4.982v-95.498a4.982 4.982 0 014.982-4.982h24.939a4.982 4.982 0 014.982 4.982v18.142c0 4.622 5.746 6.753 8.76 3.249l21.192-24.64a4.983 4.983 0 013.777-1.733h26.807c4.296 0 6.578 5.073 3.728 8.288l-27.78 31.335a4.981 4.981 0 00-.483 5.968l33.031 52.225c2.098 3.318-.285 7.646-4.211 7.646h-29.821a4.978 4.978 0 01-4.26-2.4z" fill="#fff"/><path d="M353.245 321.164a2.352 2.352 0 012.351 2.351v73.173c0 22.867-18.806 37.461-46.036 37.461-11.668 0-22.596-2.709-30.968-6.428-4.459-1.981-6.466-7.19-4.39-11.605l3.487-7.416c1.948-4.142 6.77-5.999 11.031-4.325 5.849 2.298 12.31 3.597 17.832 3.597 9.929 0 15.345-4.063 15.345-10.381v-2.501c0-1.957-2.22-3.016-3.789-1.846-4.539 3.386-10.237 5.249-16.822 5.249-19.408 0-33.85-15.496-33.85-39.717 0-23.62 13.841-38.816 33.248-38.816 6.872 0 12.752 1.894 17.431 5.402 1.563 1.172 3.782.107 3.782-1.847a2.352 2.352 0 012.351-2.351zm-31.349 38.514c0-9.027-4.514-14.894-11.434-14.894s-11.433 5.867-11.433 14.894c0 8.876 4.513 14.743 11.433 14.743s11.434-5.867 11.434-14.743z" fill="#d1f6ff"/></svg>