<svg height="512" viewBox="0 0 59 58" width="512" xmlns="http://www.w3.org/2000/svg"><g fill="none"><path d="M17.1 43.48A13.686 13.686 0 0016 49a2.821 2.821 0 01-3 3c-1.4 0-1.8-.47-2.93-2.49C9.13 47.82 7.56 45 4 45a3 3 0 00-.07 6c.34.45.642.928.9 1.43C5.99 54.51 7.93 58 13 58a8.715 8.715 0 009-9 8.627 8.627 0 01.21-1.95z" fill="#f0c419"/><path d="M9.31 28.94A25.647 25.647 0 019 25a24.89 24.89 0 015.2-15.26l.01-.01a24.943 24.943 0 0112.47-8.64h.01a25.016 25.016 0 0119.42 2.04l11 12.31c4.99 12.083-.166 25.97-11.83 31.87h-.01c-.748.39-1.52.734-2.31 1.03a24.626 24.626 0 01-7.34 1.61h-.01c-.53.03-1.07.05-1.61.05a24.95 24.95 0 01-16.85-6.53z" fill="#f29c1f"/><path d="M55.82 8.01a2.992 2.992 0 012.9 4.25C46.18 39.44 15.69 43.8 14.4 43.97a2.8 2.8 0 01-.4.03 3 3 0 01-2.97-2.6 2.881 2.881 0 01.15-1.41z" fill="#f0c419"/><path d="M42.96 48.34a24.626 24.626 0 01-7.34 1.61h-.01a20.928 20.928 0 01-9.72-8.15c-.15-.25-.28-.49-.4-.7 1.9-.68 3.96-1.5 6.1-2.51a30.693 30.693 0 006 6.51 23.66 23.66 0 005.37 3.24zm9.89-6.92a25.029 25.029 0 01-7.57 5.89c2.51-7.17 2.11-15.87 1.84-19.06a51.174 51.174 0 005.7-6.24 43.145 43.145 0 01.03 19.41zM23.44 11.14a29.24 29.24 0 00-.4 5.99c.087 2.488.535 4.95 1.33 7.31-1.73.78-3.42 1.44-5.01 1.98a33.281 33.281 0 011.84-22.9 24.721 24.721 0 015.48-2.43 41.034 41.034 0 00-1.92 4.74 34.063 34.063 0 00-1.32 5.31zm-9.29 16.83c-2.26.56-3.98.84-4.84.97A25.647 25.647 0 019 25a24.89 24.89 0 015.2-15.26 40.35 40.35 0 00-.05 18.23z" fill="#e57e25"/><path d="M42.56 9.76a37.309 37.309 0 01-5.37 6.27c-4.02-3.51-10.31-4.57-13.75-4.89a34.063 34.063 0 011.32-5.31c3.65-.25 12.18-.31 17.8 3.93zm-10.53 10.4a51.343 51.343 0 01-7.66 4.28 25.742 25.742 0 01-1.33-7.31 19.67 19.67 0 018.99 3.03zm9.02 13c-.05 2.81-.59 7.86-3.46 11.94a30.693 30.693 0 01-6-6.51 62.224 62.224 0 009.46-5.43z" fill="#d25627"/><path d="M8.77 34.99A3.005 3.005 0 0011 40c.06.002.12-.002.18-.01.094 0 .188-.01.28-.03 1.38-.21 33.81-5.56 44.33-31.85a.381.381 0 00.03-.1 3 3 0 00-1.71-3.8 2.928 2.928 0 00-2.12-.02L33 23z" fill="#f29c1f"/><path d="M9 35a3 3 0 01-.3-5.984c.347-.037 28.341-3.191 37.517-26.13a3 3 0 015.57 2.228C41.23 31.5 10.6 34.855 9.3 34.985c-.1.01-.2.015-.3.015z" fill="#f0c419"/></g></svg>